# xmcd
#
# Track frame offsets: 
#        150
#        10821
#        21006
#        31233
#        43871
#        55362
#        67606
#        78329
#        89276
#        100514
#        112828
#        124073
#        135542
#
# Disc length: 1973 seconds
#
# Revision: 0
# Processed by: cddbd v1.5.2PL0 Copyright (c) Steve Scherf et al.
# Submitted via: ExactAudioCopyFreeDBPlugin 1.0
#
DISCID=9307b30d
DTITLE=The Impressions - The Impressions
DYEAR=1963
DGENRE=Soul
TTITLE0=Gypsy Woman
TTITLE1=Grow Closer Together
TTITLE2=Little Young Lover
TTITLE3=You've Come Home
TTITLE4=Never Let Me Go
TTITLE5=Can't You See
TTITLE6=Minstrel And Queen
TTITLE7=I Need Your Love
TTITLE8=I'm The One Who Loves You
TTITLE9=Sad, Sad Girl And Boy
TTITLE10=As Long As You Love Me
TTITLE11=Twist And Limbo
TTITLE12=It's All Right
EXTD=
EXTT0=
EXTT1=
EXTT2=
EXTT3=
EXTT4=
EXTT5=
EXTT6=
EXTT7=
EXTT8=
EXTT9=
EXTT10=
EXTT11=
EXTT12=
PLAYORDER=
